<svg width="28" height="28" viewBox="0 0 28 28" fill="none" xmlns="http://www.w3.org/2000/svg">
<path d="M14 2.79999C7.8148 2.79999 2.8 7.81479 2.8 14C2.8 19.2481 6.41387 23.6395 11.2859 24.8547C11.2336 24.7035 11.2 24.528 11.2 24.3105V22.3963C10.7455 22.3963 9.98387 22.3963 9.79253 22.3963C9.02627 22.3963 8.34493 22.0668 8.01453 21.4545C7.64773 20.7741 7.58427 19.7335 6.6752 19.0969C6.40547 18.8851 6.6108 18.6433 6.9216 18.676C7.4956 18.8384 7.9716 19.2323 8.4196 19.8165C8.86573 20.4017 9.07573 20.5343 9.9092 20.5343C10.3133 20.5343 10.9181 20.5109 11.4875 20.4213C11.7936 19.6439 12.3228 18.928 12.9696 18.5901C9.24 18.2065 7.46013 16.3511 7.46013 13.832C7.46013 12.7475 7.92213 11.6984 8.70707 10.8145C8.44947 9.93719 8.1256 8.14799 8.806 7.46665C10.4841 7.46665 11.4987 8.55492 11.7423 8.84892C12.5785 8.56239 13.4969 8.39999 14.462 8.39999C15.4289 8.39999 16.3511 8.56239 17.1892 8.85079C17.43 8.55865 18.4455 7.46665 20.1273 7.46665C20.8105 8.14892 20.4829 9.94559 20.2225 10.8211C21.0028 11.7031 21.462 12.7493 21.462 13.832C21.462 16.3492 19.6849 18.2037 15.9609 18.5892C16.9857 19.124 17.7333 20.6267 17.7333 21.7588V24.3105C17.7333 24.4076 17.7119 24.4776 17.7007 24.5607C22.0649 23.0309 25.2 18.8869 25.2 14C25.2 7.81479 20.1852 2.79999 14 2.79999Z" fill="black"/>
</svg>
